Coordinates
version=1
nRows=17
nColumns=24
inDegrees=yes

Units are S.I. units (second, meters, Newtons, ...)
Angles are in degrees.

endheader
time	pelvis_tilt	pelvis_list	pelvis_rotation	pelvis_tx	pelvis_ty	pelvis_tz	hip_flexion_r	hip_adduction_r	hip_rotation_r	knee_angle_r	ankle_angle_r	subtalar_angle_r	mtp_angle_r	hip_flexion_l	hip_adduction_l	hip_rotation_l	knee_angle_l	ankle_angle_l	subtalar_angle_l	mtp_angle_l	lumbar_extension	lumbar_bending	lumbar_rotation
      1.80000000	     -8.95878976	      1.65038827	      5.72487071	      0.13492405	      0.96774885	      0.04396638	     -0.50391300	     -1.99805706	    -13.63843133	    -11.64072820	     13.57514692	      0.00000000	      0.00000000	     26.45771710	     -1.35505218	    -11.99235612	      6.71184585	     -6.15418524	      0.00000000	      0.00000000	     -1.48827604	     -2.72467683	     15.11377727
      1.81000000	     -8.90983656	      1.60509083	      5.32955913	      0.13544493	      0.96664149	      0.04272589	     -0.87779147	     -2.06015652	    -13.27959699	    -11.97529507	     13.68555606	      0.00000000	      0.00000000	     26.58066247	     -1.44472642	    -11.80215983	      6.86164496	     -5.82104927	      0.00000000	      0.00000000	     -1.59357930	     -2.70254864	     15.32418046
      1.82000000	     -8.95631091	      1.55178611	      5.10292602	      0.13638387	      0.96549991	      0.04109027	     -1.25928744	     -2.13008653	    -13.26536420	    -12.14636417	     13.68023535	      0.00000000	      0.00000000	     26.78316218	     -1.41520681	    -11.74692835	      6.88109432	     -5.81176276	      0.00000000	      0.00000000	     -1.52113781	     -2.67360225	     15.32046920
      1.83000000	     -8.73825922	      1.54304288	      4.51684677	      0.13716599	      0.96474209	      0.03990632	     -1.75184429	     -2.25281249	    -12.63190158	    -12.58608683	     13.72300740	      0.00000000	      0.00000000	     26.85524387	     -1.60989907	    -11.65580563	      6.21010721	     -5.05323570	      0.00000000	      0.00000000	     -1.81235619	     -2.68594996	     15.74750301
      1.84000000	     -8.71558542	      1.55064379	      4.15866638	      0.13842669	      0.96379011	      0.03816374	     -2.17368542	     -2.42526951	    -12.51816885	    -12.82231886	     13.64374142	      0.00000000	      0.00000000	     26.99364286	     -1.62948311	    -11.43175097	      5.71082127	     -5.14619804	      0.00000000	      0.00000000	     -1.79176841	     -2.71730369	     15.92251587
      1.85000000	     -8.52178276	      1.53231444	      3.70634291	      0.13972659	      0.96309381	      0.03654924	     -2.68008241	     -2.57205255	    -12.03984775	    -13.25772258	     13.48760697	      0.00000000	      0.00000000	     27.10440212	     -1.73759669	    -11.41694943	      4.67545116	     -4.74940831	      0.00000000	      0.00000000	     -1.98020278	     -2.72006382	     16.15776691
      1.86000000	     -8.40196900	      1.53549567	      3.27917510	      0.14130058	      0.96233966	      0.03472260	     -3.13091321	     -2.76932620	    -11.73556815	    -13.65802390	     13.28447317	      0.00000000	      0.00000000	     27.19584873	     -1.80823583	    -11.24212062	      3.69600575	     -4.86474951	      0.00000000	      0.00000000	     -2.03764888	     -2.74842198	     16.36895533
      1.87000000	     -8.33051883	      1.56872578	      2.86790146	      0.14317312	      0.96158957	      0.03266390	     -3.55474303	     -3.02559103	    -11.56858872	    -14.00812253	     13.08979457	      0.00000000	      0.00000000	     27.23548736	     -1.83589098	    -10.90269513	      2.78550291	     -5.26736030	      0.00000000	      0.00000000	     -1.99552594	     -2.80389960	     16.59860176
      1.88000000	     -8.17121925	      1.59864922	      2.50093655	      0.14505323	      0.96101867	      0.03060394	     -3.97101498	     -3.27901604	    -11.21653314	    -14.60393194	     12.72365873	      0.00000000	      0.00000000	     27.27586341	     -1.86645085	    -10.63548414	      1.59086768	     -5.77508166	      0.00000000	      0.00000000	     -2.06990700	     -2.88389127	     16.78155945
      1.89000000	     -8.03266890	      1.62670873	      2.05165368	      0.14709376	      0.96049698	      0.02839690	     -4.33410853	     -3.57174727	    -10.92039821	    -15.19113999	     12.33798179	      0.00000000	      0.00000000	     27.27172853	     -1.92478655	    -10.38065170	      0.44351298	     -6.32496795	      0.00000000	      0.00000000	     -2.10465705	     -2.93238496	     16.98852888
      1.90000000	     -7.88221860	      1.63756251	      1.51150468	      0.14916685	      0.96011770	      0.02636381	     -4.57412582	     -3.85906203	    -10.39915949	    -16.02457189	     11.75756478	      0.00000000	      0.00000000	     27.28082732	     -2.05127103	    -10.43779123	     -0.80972810	     -6.93390781	      0.00000000	      0.00000000	     -2.14920389	     -2.98702321	     17.33898871
      1.91000000	     -7.74323646	      1.69897816	      1.12577298	      0.15139660	      0.95986321	      0.02407656	     -4.79725261	     -4.20184397	    -10.06937797	    -16.87348914	     11.18272549	      0.00000000	      0.00000000	     27.24917165	     -2.08189695	    -10.16109784	     -2.00012702	     -7.66345034	      0.00000000	      0.00000000	     -2.16417143	     -3.10463129	     17.49889539
      1.92000000	     -7.59396805	      1.77740325	      0.73229313	      0.15372256	      0.95977352	      0.02166844	     -5.00326642	     -4.58163659	     -9.81906758	    -17.72148435	     10.57195334	      0.00000000	      0.00000000	     27.17864916	     -2.10614674	     -9.79609079	     -3.19540659	     -8.36269520	      0.00000000	      0.00000000	     -2.18782254	     -3.23410501	     17.69754451
      1.93000000	     -7.41553303	      1.84960525	      0.44584859	      0.15603425	      0.95991520	      0.01916331	     -5.10330705	     -4.95600794	     -9.52238902	    -18.86206796	      9.73979606	      0.00000000	      0.00000000	     27.09720835	     -2.09064603	     -9.57769512	     -4.40649834	     -9.02454466	      0.00000000	      0.00000000	     -2.26321719	     -3.36778222	     17.77716825
      1.94000000	     -7.26069837	      1.94505273	      0.12807756	      0.15826518	      0.96024824	      0.01665976	     -5.02555652	     -5.38988445	     -9.26274319	    -20.21724533	      8.67637595	      0.00000000	      0.00000000	     27.03056893	     -2.07502584	     -9.53084217	     -5.64406537	     -9.56926834	      0.00000000	      0.00000000	     -2.33160183	     -3.53144523	     17.86145269
      1.95000000	     -7.37755324	      2.09266384	     -0.31153228	      0.16053025	      0.96038517	      0.01425349	     -4.50992057	     -5.90784859	     -8.85690025	    -21.76818312	      7.51473464	      0.00000000	      0.00000000	     27.25813932	     -2.07394389	     -9.82995179	     -6.97510795	     -9.73240387	      0.00000000	      0.00000000	     -2.04186607	     -3.74381656	     18.10460697
      1.96000000	     -7.26607095	      2.20526606	     -0.50815536	      0.16280438	      0.96105537	      0.01150693	     -4.23034604	     -6.38072440	     -8.74701460	    -23.33583756	      6.19408779	      0.00000000	      0.00000000	     27.20257026	     -1.98334515	     -9.78598838	     -8.21173980	     -9.85400127	      0.00000000	      0.00000000	     -2.05101583	     -3.90781501	     18.07591024
